<svg width="24" height="24" viewBox="0 0 24 24" fill="none" xmlns="http://www.w3.org/2000/svg"><path d="M7.84999 13L10.7 15.85C10.9 16.05 10.9958 16.2833 10.9875 16.55C10.9792 16.8167 10.8833 17.05 10.7 17.25C10.5 17.45 10.2625 17.5542 9.98749 17.5625C9.71249 17.5708 9.47499 17.475 9.27499 17.275L4.69999 12.7C4.49999 12.5 4.39999 12.2667 4.39999 12C4.39999 11.7333 4.49999 11.5 4.69999 11.3L9.27499 6.725C9.47499 6.525 9.71249 6.42917 9.98749 6.4375C10.2625 6.44583 10.5 6.55 10.7 6.75C10.8833 6.95 10.9792 7.18333 10.9875 7.45C10.9958 7.71667 10.9 7.95 10.7 8.15L7.84999 11H19C19.2833 11 19.5208 11.0958 19.7125 11.2875C19.9042 11.4792 20 11.7167 20 12C20 12.2833 19.9042 12.5208 19.7125 12.7125C19.5208 12.9042 19.2833 13 19 13H7.84999Z" fill="currentcolor"/></svg>
